<?xml version="1.0" encoding="utf-8"?>
<!-- Generator: Adobe Illustrator 15.0.0, SVG Export Plug-In . SVG Version: 6.00 Build 0)  -->
<!DOCTYPE svg PUBLIC "-//W3C//DTD SVG 1.1//EN" "http://www.w3.org/Graphics/SVG/1.1/DTD/svg11.dtd">
<svg version="1.1" id="Layer_1" xmlns="http://www.w3.org/2000/svg" xmlns:xlink="http://www.w3.org/1999/xlink" x="0px" y="0px"
	 width="500px" height="500px" viewBox="0 0 500 500" enable-background="new 0 0 500 500" xml:space="preserve">
<path fill-rule="evenodd" clip-rule="evenodd" fill="#40AA54" d="M248.721,7.827c-94.201,0-170.49,76.5-170.49,170.7
	c0,72.918,45.943,135.296,110.639,159.532l39.199-104.739c-22.128-8.43-37.933-29.713-37.933-54.793
	c0-32.453,26.13-58.795,58.584-58.795c32.456,0,58.585,26.342,58.585,58.795c0,25.08-15.806,46.363-38.143,54.793l39.409,104.739
	c64.695-24.235,110.64-86.613,110.64-159.532C419.213,84.327,342.924,7.827,248.721,7.827z"/>
<path fill="none" stroke="#20552A" stroke-width="10.4966" stroke-linejoin="round" stroke-miterlimit="10" d="M248.721,7.827
	c-94.201,0-170.49,76.5-170.49,170.7c0,72.918,45.943,135.296,110.639,159.532l39.199-104.739
	c-22.128-8.43-37.933-29.713-37.933-54.793c0-32.453,26.13-58.795,58.584-58.795c32.456,0,58.585,26.342,58.585,58.795
	c0,25.08-15.806,46.363-38.143,54.793l39.409,104.739c64.695-24.235,110.64-86.613,110.64-159.532
	C419.213,84.327,342.924,7.827,248.721,7.827z"/>
<path fill-rule="evenodd" clip-rule="evenodd" fill="#1E531D" d="M411.624,305.815c-4.002,0-7.586,1.476-10.537,4.637
	c-2.948,2.949-4.636,6.744-4.636,10.959s1.688,8.008,4.636,10.957c2.951,3.161,6.535,4.637,10.75,4.637s7.796-1.476,10.745-4.637
	c3.161-2.949,4.425-6.742,4.425-10.957c0-2.319-0.42-4.849-1.685-7.166c-1.054-2.317-2.74-4.215-4.638-5.69
	C418.159,306.659,414.998,305.815,411.624,305.815z M429.958,321.411c0,5.057-1.685,9.271-5.269,12.854
	c-3.582,3.583-7.797,5.269-12.853,5.269c-5.059,0-9.273-1.686-12.857-5.269c-3.583-3.583-5.269-7.798-5.269-12.854
	c0-2.951,0.422-5.48,1.686-7.798c1.055-2.319,2.742-4.427,4.85-6.112c3.371-2.949,7.163-4.215,11.378-4.215
	c2.74,0,5.269,0.422,7.589,1.476c3.369,1.476,5.899,3.583,7.794,6.744C428.904,314.667,429.958,317.828,429.958,321.411z
	 M409.307,314.455v5.69h0.843c2.741,0,4.005-0.842,4.005-2.949c0-1.897-1.264-2.741-4.005-2.741H409.307z M413.731,323.097h-0.21
	l6.532,8.852h-4.846l-5.901-8.43v8.43h-3.792v-21.074h4.002c2.74,0,4.848,0.632,6.112,1.686c1.477,1.264,2.107,2.739,2.107,4.637
	c0,1.474-0.421,2.527-1.054,3.793C415.839,322.043,414.998,322.675,413.731,323.097z"/>
<path d="M64.942,394.668c0,6.585-1.918,11.83-5.754,15.728c-3.836,3.898-8.977,5.85-15.426,5.85c-6.337,0-11.381-1.991-15.133-5.97
	c-3.725-4.002-5.587-9.377-5.587-16.122c0-6.742,1.903-12.156,5.711-16.24c3.78-4.109,8.798-6.162,15.052-6.162
	c6.585,0,11.755,2.04,15.509,6.124C63.065,381.958,64.942,387.557,64.942,394.668z M47.153,401.203
	c0.829-1.997,1.243-4.361,1.243-7.092c0-1.518-0.105-2.891-0.311-4.115c-0.208-1.227-0.504-2.275-0.894-3.148
	c-0.387-0.873-0.854-1.549-1.395-2.028c-0.543-0.482-1.152-0.721-1.825-0.721c-1.319,0-2.379,0.909-3.182,2.729
	c-0.801,1.596-1.202,3.982-1.202,7.17c0,3.135,0.401,5.523,1.202,7.169c0.802,1.818,1.875,2.73,3.221,2.73
	C45.278,403.896,46.326,402.999,47.153,401.203L47.153,401.203z M87.227,436.083H70.68v-64.332h16.505l-0.329,6.297
	c0.685-1.317,1.385-2.438,2.099-3.354c0.712-0.921,1.482-1.641,2.305-2.161c0.823-0.522,1.708-0.781,2.655-0.781
	c0.946,0,1.996,0,3.149,0c4.28,0,7.765,2.053,10.455,6.162c2.661,4.057,3.992,9.445,3.992,16.162c0,6.823-1.275,12.224-3.828,16.2
	c-2.498,3.979-5.941,5.97-10.331,5.97c-4.007,0-7.505-2.32-10.496-6.957c0.136,1.399,0.218,2.606,0.247,3.623
	c0.083,1.041,0.124,2.296,0.124,3.764V436.083z M94.924,393.744c0-2.729-0.338-4.849-1.008-6.356
	c-0.673-1.507-1.626-2.261-2.861-2.261c-2.552,0-3.828,2.925-3.828,8.774c0,5.976,1.235,8.967,3.705,8.967
	c1.235,0,2.208-0.802,2.923-2.398C94.565,398.872,94.924,396.632,94.924,393.744z M136.942,403.896c1.865,0,3.087-0.905,3.663-2.716
	l16.135,0.328c-1.152,4.886-3.396,8.563-6.729,11.031c-3.334,2.47-7.691,3.705-13.068,3.705c-6.377,0-11.381-1.9-15.011-5.697
	c-3.604-3.848-5.404-9.108-5.404-15.78c0-6.775,1.938-12.299,5.818-16.571c3.877-4.297,8.88-6.445,15.009-6.445
	c6.092,0,10.949,2.08,14.571,6.241c3.623,4.188,5.434,9.741,5.434,16.66l-0.083,2.823h-24.202
	C133.265,401.756,134.555,403.896,136.942,403.896L136.942,403.896z M140.935,388.132c0-0.589-0.097-1.13-0.288-1.62
	c-0.193-0.489-0.461-0.911-0.803-1.265c-0.343-0.354-0.75-0.634-1.214-0.84c-0.467-0.206-0.976-0.309-1.523-0.309
	c-1.153,0-2.087,0.376-2.799,1.134c-0.714,0.755-1.07,1.721-1.07,2.899H140.935z M204.572,416.245h-16.546v-23.544
	c0-2.031-0.252-3.445-0.761-4.24c-0.509-0.796-1.391-1.193-2.651-1.193c-2.939,0-4.408,2.183-4.408,6.545v22.433h-16.547v-44.494
	h16.547c-0.028,1.096-0.056,2.111-0.083,3.045c-0.028,0.933-0.067,1.797-0.124,2.594l-0.165,2.84
	c2.846-5.654,7.03-8.479,12.554-8.479c3.84,0,6.822,1.302,8.948,3.907c2.156,2.607,3.234,6.233,3.234,10.883V416.245z"/>
<path d="M250.573,375.043c5.131,0,8.944,2.647,11.443,7.943l-7.656,4.076c-1.208-2.444-2.704-3.664-4.486-3.664
	c-0.852,0-1.579,0.28-2.182,0.841c-0.604,0.563-0.905,1.282-0.905,2.16c0,1.535,1.782,3.056,5.35,4.563
	c4.911,2.111,8.218,4.057,9.92,5.839c1.7,1.78,2.552,4.179,2.552,7.192c0,3.865-1.429,7.1-4.28,9.704
	c-2.773,2.468-6.12,3.699-10.044,3.699c-6.722,0-11.483-3.28-14.282-9.837l7.902-3.663c1.097,1.92,1.935,3.141,2.511,3.663
	c1.123,1.042,2.469,1.564,4.033,1.564c3.129,0,4.693-1.429,4.693-4.28c0-1.646-1.207-3.184-3.621-4.611
	c-0.935-0.466-1.868-0.919-2.8-1.357c-0.934-0.44-1.88-0.893-2.84-1.358c-2.689-1.316-4.583-2.635-5.68-3.951
	c-1.399-1.676-2.098-3.828-2.098-6.462c0-3.487,1.193-6.368,3.58-8.644C244.124,376.181,247.088,375.043,250.573,375.043
	L250.573,375.043z M277.056,411.224c-4.06-4.063-6.091-9.168-6.091-15.312c0-5.793,2.073-10.717,6.215-14.777
	c4.143-4.063,9.193-6.092,15.147-6.092c5.982,0,11.058,2.044,15.229,6.133c4.115,4.087,6.174,9.108,6.174,15.065
	c0,6.009-2.073,11.042-6.215,15.105c-4.173,4.033-9.288,6.05-15.353,6.05C286.152,417.396,281.117,415.339,277.056,411.224
	L277.056,411.224z M280.431,396.076c0,4.005,1.071,7.175,3.212,9.508c2.195,2.358,5.09,3.54,8.685,3.54
	c3.621,0,6.519-1.167,8.684-3.499c2.168-2.333,3.253-5.448,3.253-9.343c0-3.898-1.085-7.012-3.253-9.344
	c-2.194-2.361-5.089-3.54-8.684-3.54c-3.539,0-6.407,1.179-8.603,3.54C281.528,389.297,280.431,392.343,280.431,396.076z
	 M332.697,376.154v23.009c0,6.639,2.619,9.961,7.861,9.961s7.862-3.322,7.862-9.961v-23.009h9.26v23.215
	c0,3.21-0.397,5.98-1.193,8.314c-0.768,2.085-2.099,3.964-3.992,5.639c-3.128,2.717-7.106,4.074-11.937,4.074
	c-4.801,0-8.768-1.357-11.896-4.074c-1.92-1.675-3.278-3.554-4.074-5.639c-0.768-1.867-1.153-4.639-1.153-8.314v-23.215H332.697z
	 M369.295,376.154h9.261v3.581c1.7-1.785,3.211-3.005,4.527-3.664c1.345-0.687,2.936-1.028,4.775-1.028
	c2.44,0,4.992,0.795,7.655,2.388l-4.24,8.479c-1.756-1.264-3.471-1.894-5.145-1.894c-5.05,0-7.573,3.813-7.573,11.442v20.786h-9.261
	V376.154z M420.065,375.043c3.952,0,7.684,0.946,11.196,2.84v12.308c-2.114-2.581-4.007-4.351-5.681-5.311
	c-1.646-0.987-3.581-1.481-5.804-1.481c-3.485,0-6.38,1.22-8.684,3.664c-2.306,2.44-3.457,5.501-3.457,9.179
	c0,3.758,1.11,6.845,3.334,9.261c2.248,2.414,5.115,3.622,8.602,3.622c2.223,0,4.184-0.481,5.886-1.44
	c1.646-0.935,3.581-2.745,5.804-5.434v12.225c-3.76,1.947-7.521,2.922-11.278,2.922c-6.203,0-11.389-2.004-15.559-6.009
	c-4.171-4.034-6.256-9.043-6.256-15.024c0-5.982,2.111-11.03,6.338-15.146C408.732,377.102,413.919,375.043,420.065,375.043
	L420.065,375.043z M476.78,398.381h-28.729c0.247,3.292,1.317,5.913,3.211,7.862c1.894,1.92,4.322,2.881,7.285,2.881
	c2.305,0,4.211-0.549,5.722-1.646c1.481-1.099,3.17-3.128,5.063-6.091l7.82,4.362c-1.208,2.058-2.483,3.82-3.828,5.288
	c-1.346,1.469-2.786,2.676-4.321,3.622c-1.537,0.947-3.198,1.639-4.98,2.08c-1.784,0.438-3.719,0.657-5.804,0.657
	c-5.982,0-10.784-1.921-14.407-5.762c-3.622-3.869-5.432-9.002-5.432-15.394c0-6.34,1.756-11.472,5.268-15.396
	c3.54-3.868,8.232-5.803,14.077-5.803c5.898,0,10.563,1.879,13.994,5.64c3.402,3.731,5.104,8.902,5.104,15.518L476.78,398.381z
	 M467.273,390.808c-1.29-4.938-4.405-7.409-9.344-7.409c-1.126,0-2.183,0.172-3.17,0.515c-0.987,0.341-1.887,0.836-2.695,1.481
	c-0.811,0.645-1.503,1.42-2.078,2.326c-0.577,0.905-1.017,1.934-1.317,3.087H467.273z"/>
<path d="M98.272,437.037c0-1.619,0.591-3.021,1.77-4.198c1.179-1.181,2.593-1.771,4.24-1.771c1.673,0,3.101,0.59,4.28,1.771
	c1.18,1.151,1.77,2.565,1.77,4.238c0,1.675-0.59,3.103-1.77,4.281c-1.152,1.18-2.566,1.771-4.239,1.771s-3.102-0.591-4.281-1.771
	C98.863,440.18,98.272,438.738,98.272,437.037z M108.933,453.707v40.091h-9.261v-40.091H108.933z M120.661,453.707h9.302v3.704
	c3.238-3.21,6.887-4.816,10.949-4.816c4.664,0,8.3,1.469,10.907,4.405c2.25,2.496,3.375,6.57,3.375,12.225v24.573h-9.302v-22.363
	c0-3.947-0.55-6.674-1.646-8.181c-1.07-1.536-3.02-2.303-5.845-2.303c-3.074,0-5.256,1.014-6.544,3.042
	c-1.264,2-1.894,5.494-1.894,10.482v19.322h-9.302V453.707z M165.372,437.037c0-1.619,0.591-3.021,1.77-4.198
	c1.179-1.181,2.593-1.771,4.239-1.771c1.673,0,3.102,0.59,4.281,1.771c1.179,1.151,1.77,2.565,1.77,4.238
	c0,1.675-0.591,3.103-1.77,4.281c-1.152,1.18-2.567,1.771-4.24,1.771s-3.101-0.591-4.28-1.771
	C165.963,440.18,165.372,438.738,165.372,437.037z M176.033,453.707v40.091h-9.261v-40.091H176.033z M197.311,462.351v31.447h-9.262
	v-31.447h-3.952v-8.644h3.952v-14.695h9.262v14.695h7.204v8.644H197.311z M209.29,437.037c0-1.619,0.589-3.021,1.77-4.198
	c1.18-1.181,2.594-1.771,4.24-1.771c1.673,0,3.099,0.59,4.28,1.771c1.18,1.151,1.77,2.565,1.77,4.238c0,1.675-0.59,3.103-1.77,4.281
	c-1.152,1.18-2.566,1.771-4.239,1.771c-1.676,0-3.102-0.591-4.281-1.771C209.878,440.18,209.29,438.738,209.29,437.037z
	 M219.95,453.707v40.091h-9.26v-40.091H219.95z M261.23,453.707h9.303v40.091h-9.303v-4.199c-3.813,3.566-7.916,5.351-12.308,5.351
	c-5.542,0-10.125-2.002-13.748-6.01c-3.593-4.089-5.392-9.192-5.392-15.312c0-6.009,1.799-11.016,5.392-15.023
	c3.596-4.006,8.097-6.01,13.5-6.01c4.665,0,8.85,1.922,12.555,5.763V453.707z M242.42,464.573c-2.111,2.442-3.169,5.46-3.169,9.055
	c0,3.843,1.028,6.971,3.086,9.385c2.114,2.442,4.774,3.664,7.985,3.664c3.431,0,6.203-1.18,8.315-3.54
	c2.113-2.443,3.169-5.542,3.169-9.303s-1.056-6.859-3.169-9.302c-2.112-2.388-4.858-3.581-8.233-3.581
	C247.224,460.951,244.561,462.159,242.42,464.573L242.42,464.573z M291.721,462.351v31.447h-9.262v-31.447h-3.952v-8.644h3.952
	v-14.695h9.262v14.695h7.201v8.644H291.721z M303.699,437.037c0-1.619,0.592-3.021,1.77-4.198c1.182-1.181,2.594-1.771,4.24-1.771
	c1.675,0,3.102,0.59,4.28,1.771c1.182,1.151,1.771,2.565,1.771,4.238c0,1.675-0.589,3.103-1.771,4.281
	c-1.152,1.18-2.564,1.771-4.238,1.771c-1.675,0-3.101-0.591-4.282-1.771C304.291,440.18,303.699,438.738,303.699,437.037z
	 M314.36,453.707v40.091h-9.262v-40.091H314.36z M331.069,453.707l10.372,22.515l10.332-22.515h10.413l-20.827,42.848
	l-20.662-42.848H331.069z M403.482,475.934h-28.729c0.247,3.293,1.317,5.913,3.21,7.861c1.894,1.92,4.321,2.882,7.286,2.882
	c2.304,0,4.21-0.551,5.721-1.646c1.481-1.098,3.169-3.128,5.063-6.093l7.821,4.364c-1.208,2.057-2.485,3.821-3.828,5.288
	c-1.347,1.467-2.787,2.677-4.321,3.622c-1.538,0.946-3.198,1.639-4.981,2.078c-1.783,0.438-3.719,0.659-5.803,0.659
	c-5.984,0-10.785-1.92-14.407-5.763c-3.622-3.869-5.434-9-5.434-15.394c0-6.339,1.756-11.469,5.269-15.395
	c3.54-3.869,8.232-5.804,14.077-5.804c5.898,0,10.564,1.88,13.995,5.64c3.401,3.73,5.104,8.905,5.104,15.518L403.482,475.934z
	 M393.976,468.359c-1.292-4.939-4.405-7.408-9.345-7.408c-1.125,0-2.182,0.17-3.169,0.515c-0.988,0.343-1.887,0.837-2.696,1.481
	c-0.811,0.645-1.503,1.421-2.078,2.325c-0.576,0.906-1.018,1.935-1.318,3.087H393.976z"/>
</svg>
